<svg width="19" height="19" viewBox="0 0 19 19" fill="none" xmlns="http://www.w3.org/2000/svg">
<path d="M10.1406 3.27344C10.0469 3.22656 10 3.15625 10 3.0625C10 2.96875 10.0469 2.89844 10.1406 2.85156L11.8633 2.11328L12.6016 0.390625C12.6484 0.296875 12.7188 0.25 12.8125 0.25C12.9062 0.25 12.9766 0.296875 13.0234 0.390625L13.7617 2.11328L15.4844 2.85156C15.5781 2.89844 15.625 2.96875 15.625 3.0625C15.625 3.15625 15.5781 3.22656 15.4844 3.27344L13.7617 4.01172L13.0234 5.73438C12.9766 5.82813 12.9062 5.875 12.8125 5.875C12.7188 5.875 12.6484 5.82813 12.6016 5.73438L11.8633 4.01172L10.1406 3.27344ZM13.7969 9.63672C14.1484 9.70703 14.3711 9.89453 14.4648 10.1992C14.5586 10.5039 14.4883 10.7852 14.2539 11.043L11.582 13.6445L12.25 17.3008C12.2734 17.6289 12.168 17.8984 11.9336 18.1094C11.6523 18.2734 11.3711 18.2852 11.0898 18.1445L7.78516 16.4219L4.48047 18.1445C4.17578 18.2852 3.89453 18.2734 3.63672 18.1094C3.37891 17.9219 3.27344 17.6523 3.32031 17.3008L3.91797 13.6445L1.24609 11.043C1.01172 10.7617 0.941406 10.4805 1.03516 10.1992C1.12891 9.89453 1.35156 9.70703 1.70312 9.63672L5.39453 9.07422L7.01172 5.76953C7.19922 5.46484 7.44531 5.3125 7.75 5.3125C8.05469 5.3125 8.30078 5.46484 8.48828 5.76953L10.1055 9.10938L13.7969 9.63672ZM18.8945 7.94922C18.9648 7.99609 19 8.05469 19 8.125C19 8.19531 18.9648 8.25391 18.8945 8.30078L17.4883 8.86328L16.9258 10.2695C16.8789 10.3398 16.8203 10.375 16.75 10.375C16.6797 10.375 16.6211 10.3398 16.5742 10.2695L16.0117 8.86328L14.6055 8.30078C14.5352 8.25391 14.5 8.19531 14.5 8.125C14.5 8.05469 14.5352 7.99609 14.6055 7.94922L16.0117 7.38672L16.5742 5.98047C16.6211 5.91016 16.6797 5.875 16.75 5.875C16.8203 5.875 16.8789 5.91016 16.9258 5.98047L17.4883 7.38672L18.8945 7.94922Z" fill="#F41E1E"/>
</svg>
