<svg width="28" height="18" viewBox="0 0 28 18" fill="none" xmlns="http://www.w3.org/2000/svg">
<g clip-path="url(#clip0_1153_12)">
<path d="M8.22 17.12C7.26 17.12 6.42 16.94 5.7 16.58C4.98 16.18 4.4 15.66 3.96 15.02C3.56 14.38 3.24 13.62 3 12.74C2.76 11.86 2.64 10.94 2.64 9.98C2.64 8.02 3.14 6.18 4.14 4.46C5.18 2.74 6.78 1.38 8.94 0.379997L9.48 1.46C8.36 1.98 7.36 2.74 6.48 3.74C5.64 4.7 5.14 5.72 4.98 6.8C4.74 7.64 4.72 8.46 4.92 9.26C5.8 8.3 6.98 7.82 8.46 7.82C9.82 7.82 10.94 8.24 11.82 9.08C12.7 9.88 13.14 11 13.14 12.44C13.14 13.84 12.68 14.98 11.76 15.86C10.84 16.7 9.66 17.12 8.22 17.12ZM20.58 17.12C19.62 17.12 18.78 16.94 18.06 16.58C17.34 16.18 16.76 15.66 16.32 15.02C15.92 14.38 15.6 13.62 15.36 12.74C15.12 11.86 15 10.94 15 9.98C15 8.02 15.5 6.18 16.5 4.46C17.54 2.74 19.14 1.38 21.3 0.379997L21.84 1.46C20.72 1.98 19.72 2.74 18.84 3.74C18 4.7 17.5 5.72 17.34 6.8C17.1 7.64 17.08 8.46 17.28 9.26C18.16 8.3 19.34 7.82 20.82 7.82C22.18 7.82 23.3 8.24 24.18 9.08C25.06 9.88 25.5 11 25.5 12.44C25.5 13.84 25.04 14.98 24.12 15.86C23.2 16.7 22.02 17.12 20.58 17.12Z" fill="white"/>
</g>
<defs>
<clipPath id="clip0_1153_12">
<rect width="28" height="18" fill="white"/>
</clipPath>
</defs>
</svg>
