<svg width="60" height="40" viewBox="0 0 60 40" fill="none" xmlns="http://www.w3.org/2000/svg">
<path d="M39.125 27.0212C36.375 29.9478 31.875 34.783 30 36.8188L20.875 27.0212C20.375 26.5123 19.625 26.5123 19.125 27.0212C18.625 27.5302 18.625 28.2937 19.125 28.8026L29.25 39.6181C29.5 39.8726 29.875 39.9998 30.125 39.9998C30.5 39.9998 30.75 39.8726 31 39.6181C31 39.6181 37.5 32.6199 41.125 28.8026C41.625 28.2937 41.625 27.5302 41.125 27.0212C40.5 26.5123 39.625 26.5123 39.125 27.0212Z" fill="#F41E1E"/>
<path d="M47.7499 20.4049C47.9999 20.6593 48.3749 20.7866 48.6249 20.7866C48.8749 20.7866 49.2499 20.6593 49.4999 20.4049C52.1249 17.86 53.3749 14.17 52.9999 10.48C52.4999 6.79005 50.3749 3.48178 46.9999 1.57316C41.1249 -1.60787 33.7499 0.300752 30.3749 6.0266C30.2499 6.15385 30.2499 6.28109 30.1249 6.53557C28.6249 3.73626 25.8749 1.57316 22.7499 0.555234C19.4999 -0.462695 16.1249 -0.0809711 13.2499 1.70041C9.99986 3.60902 7.74986 6.79005 7.24986 10.48C6.74986 14.17 7.99986 17.7328 10.6249 20.4049C11.1249 20.9138 11.8749 20.9138 12.3749 20.4049C12.8749 19.8959 12.8749 19.1324 12.3749 18.6235C10.3749 16.5876 9.37486 13.7883 9.74986 10.8618C10.1249 7.93522 11.8749 5.3904 14.4999 3.99075C16.8749 2.71833 19.4999 2.33661 22.1249 3.10006C24.6249 3.8635 26.7499 5.51764 27.9999 7.80798C28.3749 8.57143 29.1249 9.08039 29.9999 9.08039C30.7499 9.20763 31.6249 8.82591 32.1249 8.31695C32.3749 8.06246 32.3749 7.93522 32.7499 7.42626C35.4999 2.97282 41.3749 1.31868 45.9999 3.99075C48.6249 5.51764 50.3749 8.06246 50.7499 10.989C51.1249 13.9156 50.1249 16.7149 47.9999 18.7507C47.2499 19.1324 47.2499 19.8959 47.7499 20.4049Z" fill="#F41E1E"/>
<path d="M58.75 22.1864H43.25L41.5 17.3513C41.375 16.8423 41 16.5878 40.5 16.4606C40 16.4606 39.625 16.5878 39.25 16.9695L35.125 23.0771L32.25 13.6613C32.125 13.1523 31.625 12.7706 31.125 12.7706C30.625 12.7706 30.125 13.1523 29.875 13.6613L27.375 20.7868L24.25 16.8423C24 16.4606 23.625 16.3333 23.125 16.3333C22.75 16.3333 22.375 16.5878 22.125 16.9695L19.25 22.0592H1.25C0.5 22.0592 0 22.5681 0 23.3316C0 24.095 0.5 24.604 1.25 24.604H20.125C20.625 24.604 21 24.3495 21.25 23.9678L23.5 19.8961L27 24.095C27.25 24.4768 27.75 24.604 28.125 24.4768C28.625 24.3495 28.875 24.095 29.125 23.5861L31.125 17.9875L33.625 26.1309C33.75 26.6399 34.25 27.0216 34.875 27.0216C35.25 27.0216 35.625 26.7671 35.875 26.5126L40.125 20.2778L41.25 23.5861C41.375 24.095 41.875 24.4768 42.375 24.4768H58.75C59.5 24.4768 60 23.9678 60 23.2043C60 22.4409 59.5 22.1864 58.75 22.1864Z" fill="#F41E1E"/>
</svg>
