<svg width="60" height="60" viewBox="0 0 60 60" fill="none" xmlns="http://www.w3.org/2000/svg">
<g clip-path="url(#clip0_267_819)">
<path d="M54.5898 48.7191H51.2954C51.2925 48.7191 51.2905 48.7161 51.2915 48.7134L53.3258 43.24C53.3555 43.1598 53.3857 43.0809 53.4154 43.0032C53.6576 42.3694 53.9323 41.6509 53.6206 40.9658C53.4359 40.56 53.0879 40.2611 52.5865 40.0772L49.3724 38.8986C49.3685 38.8972 49.3647 38.8964 49.3608 38.895C49.3563 38.8935 49.3522 38.8914 49.3478 38.89L44.1058 37.142C44.0255 37.1153 43.9752 37.0944 43.9453 37.0802C43.9443 37.0798 43.9438 37.0791 43.9435 37.078C43.9174 36.9907 43.8849 36.821 43.8597 36.6901L42.5754 30.0663C42.5754 30.0658 42.5754 30.0653 42.5754 30.0647L43.5353 25.2295C43.5358 25.2271 43.5383 25.2256 43.5408 25.2264L44.3036 25.4864C44.3053 25.487 44.3064 25.4886 44.3064 25.4904V29.076C44.3064 30.8188 45.713 32.2404 47.4395 32.2451H47.4559C48.2901 32.2451 49.1095 31.9055 49.7065 31.3117C50.3057 30.7157 50.6358 29.9286 50.6358 29.0959V23.1393C50.6358 23.1277 50.6356 23.1162 50.6351 23.1045C50.5839 21.8115 49.7248 20.6598 48.4951 20.2381L42.6217 18.2384C42.6209 18.2381 42.6201 18.2375 42.6196 18.2368L41.1775 16.1617C41.1762 16.1598 41.1767 16.1572 41.1785 16.1559C42.271 15.4099 43.126 14.3237 43.7254 12.9122C43.7338 12.8923 43.741 12.872 43.7479 12.8517C43.7487 12.8493 43.75 12.8472 43.7508 12.8447C43.7515 12.8426 43.7521 12.8406 43.7528 12.8385C43.7534 12.8366 43.754 12.8347 43.7545 12.833C44.5858 10.3144 44.7092 8.0004 44.1108 6.14075C43.4684 4.14329 42.0219 2.69637 39.9288 1.95657C38.9351 1.60419 37.9651 1.61251 36.938 1.62106C35.4809 1.63337 33.8272 1.64731 31.6445 0.561686C31.2204 0.350514 30.706 0.513639 30.4805 0.929889C29.4525 2.82657 29.681 4.60548 31.0822 5.93075C31.0838 5.93216 31.084 5.93438 31.0828 5.93602C30.2346 7.15008 29.7743 8.59243 29.7743 10.0843C29.7743 12.5098 31.1892 14.8745 33.3782 16.2359C33.3802 16.237 33.3808 16.2396 33.3795 16.2416L31.1332 19.7599C31.1324 19.7611 31.1311 19.7618 31.1297 19.7619L29.2488 19.7714C29.2474 19.7714 29.2462 19.7707 29.2453 19.7695L27.1172 16.6777C26.1303 15.2452 24.1587 14.8809 22.7215 15.866C22.0192 16.3491 21.5494 17.0796 21.3988 17.9234C21.2504 18.7542 21.434 19.587 21.9151 20.2681L25.2332 24.9659C25.2356 24.9694 25.2383 24.9731 25.2409 24.9768C26.1591 26.2356 26.9628 26.2382 28.0826 26.2418H30.7439C30.7463 26.2418 30.7481 26.2437 30.7481 26.246L30.7555 29.6929C30.7555 29.694 30.7551 29.6951 30.7542 29.6959L26.9858 33.3763C26.9856 33.3764 26.9855 33.3766 26.9853 33.3769C26.0671 34.2752 25.6016 35.3573 25.6016 36.5933V44.1263C25.6016 44.1281 25.6004 44.1298 25.5986 44.1302C24.7477 44.3537 23.7266 44.8753 22.8969 45.7385C22.0949 46.5729 21.6128 47.5896 21.4745 48.7157C21.4743 48.7178 21.4725 48.7193 21.4704 48.7193H17.7682C17.7659 48.7193 17.764 48.7174 17.764 48.7151V48.3526C17.764 45.1262 15.3236 42.4601 12.1907 42.0966C12.1886 42.0963 12.187 42.0946 12.187 42.0925V26.1673C12.187 26.1641 12.1906 26.162 12.1934 26.1636L13.8174 27.085C14.3235 27.372 14.8833 27.5082 15.4396 27.5082C16.5529 27.5081 17.6524 26.962 18.28 25.9839C18.7498 25.2574 18.8966 24.4016 18.6937 23.574C18.4906 22.7462 17.9642 22.055 17.2115 21.6282L4.96853 14.6836C3.45259 13.8241 1.44927 14.3166 0.501931 15.7824C0.0324776 16.5106 -0.114124 17.3671 0.0894308 18.1942C0.292751 19.0205 0.818923 19.7105 1.57103 20.1369L5.55775 22.3988C5.55904 22.3995 5.55986 22.4009 5.55986 22.4024V31.0376C5.55986 31.5211 5.9324 31.9445 6.41568 31.9569C6.91162 31.9696 7.31767 31.5715 7.31767 31.0784V23.4045C7.31767 23.4013 7.32119 23.3992 7.324 23.4008L10.4275 25.1616C10.4288 25.1623 10.4296 25.1637 10.4296 25.1652V42.0484C10.4296 42.0507 10.4277 42.0526 10.4254 42.0526H7.32177C7.31943 42.0526 7.31756 42.0507 7.31756 42.0484V35.4383C7.31756 34.9548 6.94502 34.5314 6.46174 34.519C5.9658 34.5063 5.55974 34.9044 5.55974 35.3975V42.0483C5.55974 42.0506 5.55787 42.0525 5.55552 42.0525H2.53174C1.42021 42.0525 0.519157 42.9536 0.519157 44.0651V57.5193C0.519157 58.6302 1.41974 59.5307 2.53056 59.5307H16.8853H54.5898C57.5731 59.5307 59.9999 57.1056 59.9999 54.1248C59.9999 51.144 57.5729 48.7191 54.5898 48.7191ZM28.0808 24.4839C27.0775 24.4807 27.055 24.4806 26.6651 23.9461L23.3508 19.2537C23.1429 18.9593 23.0642 18.5966 23.1292 18.232C23.1965 17.8547 23.4054 17.5287 23.7164 17.3149C24.3551 16.877 25.2314 17.0386 25.6696 17.6742L27.981 21.0327C28.2851 21.47 28.6235 21.5304 28.9484 21.5304L30.734 21.5215C30.7363 21.5215 30.7382 21.5234 30.7382 21.5257L30.7445 24.4797C30.7445 24.482 30.7426 24.4839 30.7403 24.4839H28.0808ZM1.79627 17.7742C1.70955 17.4216 1.77447 17.0524 1.97873 16.7357C2.27545 16.2766 2.81006 16.0177 3.34349 16.0177C3.60588 16.0177 3.86802 16.0804 4.10146 16.2127L16.3446 23.1572C16.3446 23.1572 16.3446 23.1572 16.3447 23.1573C16.6722 23.3429 16.9002 23.6397 16.9868 23.9929C17.0732 24.3456 17.0085 24.7137 16.8026 25.0322C16.3628 25.7177 15.3927 25.9573 14.6849 25.556L2.43822 18.608C2.11068 18.4222 1.88275 18.1262 1.79627 17.7742ZM51.9886 41.7447C51.9509 41.912 51.8474 42.1826 51.7737 42.3758C51.7419 42.459 51.7095 42.5438 51.6781 42.6286L49.4153 48.7164C49.4147 48.718 49.4131 48.7191 49.4113 48.7191H48.8856C48.7958 48.7191 48.6092 48.7191 48.3835 48.3908C47.7757 47.5069 47.7467 45.613 47.9249 45.1356L47.962 45.0427C47.9635 45.0391 47.9647 45.0355 47.9662 45.0321L49.5777 40.8504C49.5785 40.8483 49.5809 40.8472 49.5831 40.8479L51.9781 41.726C51.9819 41.7331 51.9846 41.7377 51.9886 41.7447ZM43.5502 38.8097L47.9147 40.265C47.9169 40.2657 47.9181 40.2683 47.9173 40.2706L47.5574 41.2045L46.6321 43.6058C46.6313 43.6079 46.6289 43.609 46.6268 43.6083L38.8691 40.9418C38.3421 40.7604 38.2064 40.5762 38.0237 40.2019L36.5282 37.1059C36.5272 37.1039 36.5279 37.1016 36.5298 37.1005C37.9173 36.3475 40.0392 35.1547 41.3801 33.1724C41.3822 33.1693 41.3869 33.1703 41.3876 33.1739L42.134 37.0235C42.2727 37.7457 42.404 38.428 43.5502 38.8097ZM41.4786 19.7851C41.5985 19.7851 41.7202 19.8007 41.8411 19.8329C41.8498 19.8353 41.8558 19.8368 41.8621 19.8383C41.8629 19.8386 41.8636 19.8387 41.8644 19.8389C41.8678 19.8397 41.871 19.8404 41.8756 19.8414C41.889 19.845 41.9028 19.8502 41.916 19.8549C41.9204 19.8565 41.9249 19.858 41.9294 19.8595L47.9267 21.9013C48.4685 22.0873 48.8492 22.5914 48.878 23.1588V29.0959C48.878 29.4574 48.732 29.8017 48.4669 30.0654C48.197 30.3338 47.8292 30.4873 47.454 30.4873C47.4516 30.4873 47.4491 30.4873 47.4467 30.4873C46.6844 30.4852 46.0642 29.852 46.0642 29.0759V25.2586C46.0642 25.2305 46.066 25.204 46.0671 25.1794C46.1097 24.3663 45.6212 24.0773 45.3276 23.9779L41.0253 22.5116C41.025 22.5115 41.0247 22.5115 41.0244 22.5114C40.671 22.391 40.3849 22.1385 40.2189 21.8004C40.0535 21.4637 40.0285 21.0854 40.1487 20.7338C40.3457 20.1561 40.8917 19.7851 41.4786 19.7851ZM31.7016 2.52223C31.7023 2.51977 31.7051 2.51848 31.7074 2.51942C33.8592 3.40454 35.5569 3.39059 36.9529 3.37852C37.8585 3.37114 38.64 3.36446 39.3424 3.61337C42.4231 4.70227 42.8987 7.35962 42.6721 9.6027C42.6717 9.60633 42.6673 9.60774 42.6649 9.60504C42.4409 9.35239 42.1678 9.11438 41.8355 8.90743C41.8351 8.90719 41.8349 8.90684 41.8345 8.90661C40.8524 7.71024 39.4749 6.62344 37.6606 6.48551C36.179 6.37325 34.1256 5.93989 32.8065 5.06016C32.8058 5.05969 32.8051 5.05934 32.8044 5.05887C31.7455 4.35692 31.3883 3.55524 31.7016 2.52223ZM31.5322 10.0841C31.5322 8.95255 31.8816 7.85731 32.527 6.93587C32.5295 6.93528 32.5312 6.93481 32.5336 6.93423C34.4589 7.93196 36.7934 8.18262 37.5278 8.23829C40.0415 8.42919 41.5405 11.5351 41.9625 12.5431C41.963 12.5441 41.9629 12.5453 41.9624 12.5463C41.3864 13.7432 40.571 14.5938 39.5329 15.0781C38.8241 15.4115 37.9847 15.5804 37.0379 15.5804C36.3744 15.5804 35.668 15.419 34.9962 15.1139C33.2719 14.3281 31.5322 12.4681 31.5322 10.0841ZM34.9829 16.9965C34.984 16.9949 34.986 16.9942 34.9878 16.9949C35.6681 17.2202 36.3653 17.3384 37.0379 17.3384C37.9579 17.3384 38.8096 17.2066 39.58 16.9485C39.5817 16.9479 39.5836 16.9485 39.5847 16.95L40.4507 18.1963C40.4522 18.1985 40.4513 18.2016 40.4487 18.2025C39.5548 18.5118 38.8096 19.2142 38.4853 20.1662C38.2135 20.9613 38.2686 21.817 38.6413 22.5755C39.0145 23.3354 39.6597 23.9038 40.4582 24.1756L41.8545 24.6516C41.8565 24.6523 41.8576 24.6543 41.8573 24.6564L40.959 29.1816C40.9587 29.1836 40.9569 29.185 40.9549 29.185H32.5167C32.5144 29.185 32.5125 29.1831 32.5125 29.1807L32.4948 20.8952C32.4948 20.8944 32.4951 20.8936 32.4955 20.893L34.9829 16.9965ZM27.3595 36.5931C27.3595 35.8376 27.6392 35.1965 28.2142 34.6336L31.9921 30.9438C31.9929 30.943 31.994 30.9427 31.995 30.9427H40.5524C40.5553 30.9427 40.5574 30.9457 40.5564 30.9484C39.6767 33.3968 37.1407 34.7705 35.5519 35.6313C35.3288 35.7522 35.1179 35.8664 34.9436 35.9664L32.0847 37.5636C30.8938 38.2294 30.6755 38.578 30.7104 39.7587C30.7146 39.904 30.7195 40.0686 30.7195 40.2666L30.7358 43.997C30.7358 43.9993 30.734 44.0012 30.7316 44.0012H27.3639C27.3615 44.0012 27.3597 43.9993 27.3597 43.997V36.5931H27.3595ZM24.1644 46.9565C24.9495 46.1395 26.0107 45.759 26.4806 45.759H30.7371C30.7395 45.759 30.7413 45.7609 30.7413 45.7632L30.7478 48.715C30.7478 48.7173 30.7459 48.7192 30.7436 48.7192H23.2546C23.2519 48.7192 23.2499 48.7167 23.2504 48.7141C23.3724 48.0511 23.6782 47.4623 24.1644 46.9565ZM2.27685 57.5182V44.0652C2.27685 43.925 2.39158 43.8104 2.53162 43.8104H11.4591C13.9664 43.8104 16.0063 45.848 16.0063 48.3525V49.5981V57.769C16.0063 57.7713 16.0044 57.7732 16.0021 57.7732H2.53174C2.39158 57.7731 2.27685 57.6584 2.27685 57.5182ZM54.5898 57.7731H17.7685C17.7661 57.7731 17.7642 57.7712 17.7642 57.7689V55.0081C17.7642 55.0057 17.7661 55.0038 17.7685 55.0038H54.653C55.1365 55.0038 55.5599 54.6313 55.5723 54.148C55.585 53.6521 55.1869 53.246 54.6938 53.246H17.7685C17.7661 53.246 17.7642 53.2441 17.7642 53.2418V50.481C17.7642 50.4786 17.7661 50.4768 17.7685 50.4768H22.3147H31.6286H37.8149C38.2984 50.4768 38.7218 50.1042 38.7342 49.6209C38.7469 49.125 38.3488 48.7189 37.8557 48.7189H32.5098C32.5075 48.7189 32.5056 48.7171 32.5056 48.7147L32.4974 44.9604V44.8799C32.4974 44.8793 32.4973 44.8787 32.4973 44.8781C32.4973 44.8781 32.4974 44.8768 32.4974 44.8761L32.4772 40.2626C32.4772 40.0425 32.4717 39.8563 32.4673 39.7066C32.4659 39.6566 32.4642 39.6046 32.4632 39.5549C32.4607 39.4467 32.5164 39.3462 32.6088 39.29C32.7298 39.2166 32.8699 39.1382 32.9421 39.098L34.9827 37.9579C34.9848 37.9567 34.9875 37.9575 34.9886 37.9597L36.4424 40.9693C36.7458 41.5911 37.1803 42.2195 38.2975 42.6039L46.1126 45.29C46.1145 45.2906 46.1156 45.2924 46.1154 45.2944C46.0097 46.2421 46.1015 47.6188 46.5702 48.7132C46.5714 48.7159 46.5694 48.7189 46.5665 48.7189H42.0655C41.582 48.7189 41.1586 49.0915 41.1462 49.5748C41.1335 50.0707 41.5316 50.4768 42.0247 50.4768H48.8857H50.0253H54.5899C56.6038 50.4768 58.2422 52.1133 58.2422 54.1248C58.2421 56.1366 56.6037 57.7731 54.5898 57.7731Z" fill="#F41E1E"/>
<path d="M9.00397 52.1311H7.25166C6.76814 52.1311 6.34475 52.5036 6.33232 52.9869C6.31967 53.4829 6.71775 53.8889 7.21088 53.8889H8.9633C9.44682 53.8889 9.87022 53.5164 9.88264 53.0331C9.89529 52.537 9.49709 52.1311 9.00397 52.1311Z" fill="#F41E1E"/>
<path d="M9.00627 47.9791H7.25068C6.76717 47.9791 6.34377 48.3517 6.33135 48.835C6.31869 49.3309 6.71678 49.737 7.2099 49.737H8.96549C9.449 49.737 9.8724 49.3644 9.88482 48.8811C9.8976 48.3851 9.49939 47.9791 9.00627 47.9791Z" fill="#F41E1E"/>
</g>
<defs>
<clipPath id="clip0_267_819">
<rect width="60" height="60" fill="white"/>
</clipPath>
</defs>
</svg>
