<svg width="60" height="50" viewBox="0 0 60 50" fill="none" xmlns="http://www.w3.org/2000/svg">
<path d="M56.4846 34.5305H55.1488C54.632 32.4796 52.7916 30.9584 50.6065 30.9584H48.2246C45.64 30.9584 43.5373 33.0863 43.5373 35.7019V36.9119H35.7795C38.606 30.0447 37.2412 21.908 31.7541 16.3572L35.0188 6.99852C36.2097 3.57883 33.7099 0 30.1259 0H7.08913C3.50657 0 1.00476 3.57729 2.19649 6.99911L5.46091 16.3575C-1.17327 23.0689 -1.84905 33.7072 3.90674 41.2067C4.1288 41.4958 4.47038 41.665 4.83223 41.665H9.41622V42.8703C9.41622 44.832 10.9932 46.4279 12.9316 46.4279H14.2676C14.7843 48.4788 16.6248 50 18.8099 50H21.1917C23.7762 50 25.8789 47.8721 25.8789 45.2565V44.0465H43.5372V45.2565C43.5372 47.8721 45.6399 50 48.2245 50H50.6064C52.7915 50 54.632 48.4788 55.1487 46.4279H56.4845C58.4229 46.4279 59.9999 44.832 59.9999 42.8703V38.0881C60.0001 36.1264 58.423 34.5305 56.4846 34.5305ZM4.40675 6.21004C3.75394 4.33553 5.12354 2.37162 7.08925 2.37162H30.126C32.0903 2.37162 33.4617 4.33435 32.8088 6.20944L29.8542 14.679C29.0764 14.0799 28.2511 13.5411 27.3846 13.0698L29.7389 7.04145C30.0422 6.26435 29.4761 5.41966 28.6491 5.41966H8.56596C7.74042 5.41966 7.17233 6.26305 7.47618 7.04145L9.83057 13.07C8.96402 13.5413 8.13872 14.0802 7.36099 14.6793L4.40675 6.21004ZM11.9642 12.0809L10.2891 7.79151H26.9258L25.2507 12.0808C20.9882 10.426 16.2361 10.4225 11.9642 12.0809ZM5.4179 39.2933C3.40685 36.4812 2.34718 33.1653 2.34718 29.6663C2.34718 20.5926 9.64168 13.2106 18.6078 13.2106C27.5738 13.2106 34.8683 20.5925 34.8683 29.6663C34.8683 32.1821 34.2948 34.6719 33.208 36.9119H25.8792V35.7019C25.8792 33.0863 23.7765 30.9584 21.1919 30.9584H18.8099C16.6247 30.9584 14.7843 32.4796 14.2676 34.5305H12.9316C10.9932 34.5305 9.41622 36.1264 9.41622 38.0881V39.2933H5.4179ZM11.7598 42.8703V38.0881C11.7598 37.4342 12.2855 36.9022 12.9316 36.9022H14.1227V44.0562H12.9316C12.2855 44.0562 11.7598 43.5242 11.7598 42.8703ZM23.5353 45.2565C23.5353 46.5643 22.484 47.6283 21.1917 47.6283H18.8099C17.5176 47.6283 16.4663 46.5643 16.4663 45.2565C16.4663 42.2125 16.4663 38.6837 16.4663 35.7019C16.4663 34.3941 17.5176 33.3301 18.8099 33.3301H21.1917C22.484 33.3301 23.5353 34.3941 23.5353 35.7019V45.2565ZM25.8789 41.6747V39.2837H43.5372V41.6747H25.8789ZM52.9501 45.2565C52.9501 46.5643 51.8988 47.6283 50.6065 47.6283H48.2246C46.9323 47.6283 45.881 46.5643 45.881 45.2565C45.881 43.4277 45.881 38.0712 45.881 35.7019C45.881 34.3941 46.9323 33.3301 48.2246 33.3301H50.6065C51.8988 33.3301 52.9501 34.3941 52.9501 35.7019V45.2565ZM57.6564 42.8703C57.6564 43.5242 57.1308 44.0562 56.4846 44.0562H55.2937V36.9022H56.4846C57.1308 36.9022 57.6564 37.4342 57.6564 38.0881V42.8703Z" fill="#F41E1E"/>
</svg>
