<svg width="60" height="60" viewBox="0 0 60 60" fill="none" xmlns="http://www.w3.org/2000/svg">
<g clip-path="url(#clip0_266_794)">
<path d="M58.8 52.8H57.0791L54.9722 49.288C56.6485 47.7066 57.5988 45.5047 57.6 43.2003C57.5643 40.1295 55.9735 37.286 53.3749 35.6478L51.6564 15.0217C53.2126 13.9331 54.3482 12.3429 54.8726 10.5172C55.6893 7.61458 54.93 4.26664 52.6174 0.565987C52.2664 0.00291959 51.5252 -0.16934 50.9616 0.18221C50.3985 0.533175 50.2262 1.27495 50.5778 1.83801C52.506 4.92404 53.1757 7.6134 52.567 9.8311C52.1557 11.3053 51.1836 12.5603 49.8589 13.3279L47.6675 14.4229L47.2849 13.2745L49.8003 11.8431C50.1723 11.6287 50.4008 11.2314 50.4002 10.8014V6.00154C50.4008 5.57265 50.1723 5.17599 49.8008 4.96096C49.43 4.74592 48.9718 4.74592 48.6003 4.96037L40.2006 9.76021C39.8285 9.97465 39.5994 10.3719 39.6006 10.8014V15.6012C39.5994 16.0307 39.8279 16.4274 40.1994 16.6424C40.5709 16.8574 41.0285 16.8574 41.4005 16.643L45.1698 14.4891L45.509 15.5081C44.8592 15.6616 44.4004 16.2416 44.4004 16.9096L45.8066 32.3784C37.1403 29.3556 28.2344 27.0676 19.1843 25.5384L16.1739 18.0011H21.6012C23.5892 18.0011 25.2011 16.3899 25.2011 14.4013V14.1206C25.2011 12.3048 23.8488 10.7738 22.0477 10.5483L7.64818 8.74833C6.62341 8.6206 5.59336 8.93875 4.81878 9.62193C4.04478 10.3051 3.60183 11.2883 3.60183 12.3207V14.4013C3.60183 16.3899 5.21369 18.0011 7.20171 18.0011H8.78896L11.8849 25.7423C7.45951 27.0336 4.03072 30.545 2.84483 34.9998C1.65893 39.4551 2.88877 44.2057 6.08671 47.5267L2.92275 52.8H1.20191C0.53924 52.8 0.00195312 53.3372 0.00195312 53.9999V58.7998C0.00195312 59.463 0.53924 59.9997 1.20191 59.9997H10.8016C11.4643 59.9997 12.0015 59.463 12.0015 58.7998V53.9999C12.0015 53.3372 11.4643 52.8 10.8016 52.8H10.5209L11.6125 50.9813C12.9027 51.3914 14.248 51.6 15.6014 51.6H48.7608L49.4809 52.8H49.2003C48.5376 52.8 48.0003 53.3372 48.0003 53.9999V58.7998C48.0003 59.463 48.5376 59.9997 49.2003 59.9997H58.8C59.4626 59.9997 59.9999 59.463 59.9999 58.7998V53.9999C59.9999 53.3372 59.4626 52.8 58.8 52.8ZM42.0005 13.5341V11.4939L48.0003 8.06573V10.1059L42.0005 13.5341ZM57.6 57.5998H50.4002V55.1999H57.6V57.5998ZM9.60163 57.5998H2.40187V55.1999H9.60163V57.5998ZM5.7211 52.8L7.88079 49.2001H8.04133C8.47256 49.5071 8.92196 49.7878 9.3866 50.0403L7.72259 52.8H5.7211ZM4.80179 38.4004C4.80882 32.4393 9.63971 27.6084 15.6014 27.6008C15.9325 27.6008 16.2875 27.6237 16.7662 27.6659C25.7659 28.5061 44.8909 33.9873 51.0635 37.0745C53.4798 38.1825 55.0753 40.5455 55.2001 43.2003C55.196 46.5125 52.5119 49.1966 49.2003 49.2001H15.6014C9.63971 49.1931 4.80882 44.3622 4.80179 38.4004ZM6.00175 14.4013V12.3207C6.00175 11.658 6.53904 11.1207 7.20171 11.1207C7.25268 11.1207 7.30424 11.1236 7.35522 11.1295L21.7547 12.9294C22.3553 13.0044 22.8065 13.5154 22.8059 14.1206V14.4013C22.8059 15.0645 22.2686 15.6012 21.6059 15.6012H7.20171C6.53904 15.6012 6.00175 15.0645 6.00175 14.4013ZM13.5888 18.0011L16.4856 25.2443C16.1844 25.2249 15.8797 25.2009 15.6014 25.2009C15.1561 25.2009 14.7155 25.2249 14.2814 25.2683L11.374 18.0011H13.5888ZM16.8735 26.2128L16.8963 26.2702L16.8781 26.4706L16.8735 26.2128ZM49.3515 16.2674L50.8561 34.3307C50.1026 33.9979 49.246 33.6487 48.3038 33.2877L46.8636 17.5084L49.3515 16.2674ZM53.0076 50.6789L54.2808 52.8H52.2793L51.3817 51.3029C51.9441 51.1524 52.489 50.9432 53.0076 50.6789Z" fill="#F41E1E"/>
<path d="M15.6015 46.8002C18.599 46.7973 21.3669 45.1965 22.8657 42.6003L25.4888 43.6491C25.074 44.1384 25.1209 44.8684 25.5955 45.3002C26.0707 45.7321 26.8019 45.7098 27.2495 45.2498L30.8494 41.65C31.3041 41.1795 31.2976 40.4313 30.8347 39.9684C30.3719 39.5055 29.6231 39.4985 29.1526 39.9537L27.3116 41.7929L23.761 40.3709C24.6006 36.8911 23.1428 33.2614 20.1294 31.3296C17.1155 29.3973 13.2086 29.5877 10.3974 31.803C7.58554 34.0184 6.48636 37.7724 7.65995 41.1543C8.83354 44.5362 12.0215 46.8031 15.6015 46.8002ZM15.6015 32.4007C17.3844 32.3813 19.0824 33.1647 20.2244 34.534C21.3669 35.9039 21.8327 37.7144 21.4929 39.4651L16.0479 37.2861C15.4321 37.0394 14.7331 37.3388 14.4865 37.9546C14.2398 38.5698 14.5392 39.2688 15.155 39.5155L20.6064 41.6957C19.0309 44.0938 15.9776 45.0401 13.3217 43.9544C10.6663 42.8687 9.15053 40.0545 9.70598 37.2392C10.2614 34.4244 12.7322 32.3966 15.6015 32.4007Z" fill="#F41E1E"/>
</g>
<defs>
<clipPath id="clip0_266_794">
<rect width="60" height="60" fill="white"/>
</clipPath>
</defs>
</svg>
