<svg width="60" height="60" viewBox="0 0 60 60" fill="none" xmlns="http://www.w3.org/2000/svg">
<g clip-path="url(#clip0_266_805)">
<path d="M47.7335 19.6541C47.9285 19.8491 48.1835 19.9461 48.4384 19.9461C48.6934 19.9461 48.9488 19.8486 49.1439 19.6541L56.0918 12.7061C58.0821 10.7153 58.0821 7.47573 56.0918 5.48492C54.101 3.49365 50.8609 3.49456 48.8706 5.48492L48.4384 5.91613L48.0072 5.48492C46.0155 3.49411 42.7768 3.49411 40.786 5.48492C39.8215 6.44943 39.29 7.73162 39.29 9.0953C39.29 10.459 39.8215 11.7416 40.786 12.7057L47.7335 19.6541ZM42.1964 6.89529C42.8034 6.28829 43.5999 5.98571 44.3964 5.98571C45.1929 5.98571 45.9903 6.28875 46.5969 6.89529L47.7335 8.03237C47.9207 8.21914 48.1743 8.32442 48.4384 8.32442C48.703 8.32442 48.9566 8.21914 49.1439 8.03237L50.2809 6.89529C51.4949 5.68084 53.4683 5.68221 54.6814 6.89529C55.8945 8.10836 55.8945 10.0827 54.6814 11.2958L48.4384 17.5383L42.1964 11.2958C41.6086 10.708 41.2845 9.92614 41.2845 9.09576C41.285 8.26446 41.6086 7.4826 42.1964 6.89529Z" fill="#F41E1E"/>
<path d="M57.7908 57.8498C49.2659 58.7956 42.5051 55.0209 42.4374 54.9829C42.2081 54.8519 41.9361 54.8167 41.6812 54.8867C41.5736 54.9156 30.8505 57.7899 22.2139 55.8728C16.8297 54.6757 11.7512 50.8831 8.0429 48.1141C7.54486 47.7424 7.0729 47.3895 6.62979 47.0658C6.02462 46.6232 5.0624 46.2551 4.21417 45.9301C3.83331 45.7846 3.31146 45.5845 3.19931 45.5145C3.10226 45.4385 3.04916 45.3268 3.04916 45.1991V42.8874C3.09723 41.0582 10.7666 12.9117 11.9559 9.33105C11.9852 9.28893 12.0996 9.20608 12.1838 9.16625L27.3614 2.23388L32.2682 8.62197C32.5103 8.95293 32.4875 9.41573 32.2146 9.72106L27.366 15.1565C27.0488 15.5127 26.5146 15.5516 26.1831 15.2746L24.2225 13.4669C23.9927 13.2555 23.6659 13.1854 23.3597 13.2417C23.0525 13.2966 22.7778 13.5155 22.6359 13.7938C22.4721 14.1165 20.9875 14.512 19.4732 14.5235L18.9798 14.4736C18.5843 14.4264 18.2007 14.6329 18.0075 14.9812C17.8134 15.3296 17.8464 15.7599 18.0899 16.0757C18.511 16.62 18.8392 17.0572 19.0251 17.308L19.9956 33.8044C19.3941 36.1473 18.8429 36.8129 18.706 36.9461C18.3018 37.0738 18.0084 37.4514 18.0084 37.8973C18.0084 38.448 18.4552 38.8948 19.0059 38.8948C20.137 38.8948 21.0983 37.4084 21.8701 34.5066C29.8027 28.5713 36.7254 34.1729 37.2683 34.6339C39.7879 37.1626 39.944 38.8421 39.949 38.9167C39.9609 39.4569 40.4026 39.8918 40.9465 39.8918C41.4972 39.8918 41.9439 39.4455 41.9439 38.8948C41.9439 38.6654 41.8606 36.6975 39.2793 33.8543C41.7137 30.8615 44.4854 29.1375 47.5383 28.7622C52.8016 28.114 57.2259 31.6534 57.2703 31.6887C57.6979 32.0366 58.325 31.9725 58.6729 31.5458C59.0208 31.1197 58.9581 30.4925 58.5324 30.1442C58.3264 29.9762 53.4288 26.0362 47.3149 26.7801C43.7411 27.2136 40.5331 29.1462 37.7678 32.5291C35.5233 31.0029 29.0881 27.5486 21.8912 32.0663L20.9985 16.8956C20.9894 16.7317 20.939 16.5729 20.8534 16.4332C21.746 16.3275 22.809 16.0945 23.5798 15.5873L24.8648 16.7715C26.0609 17.7754 27.8128 17.6504 28.8537 16.485L33.7024 11.049C34.5968 10.047 34.6714 8.53179 33.8644 7.42675L28.4591 0.389556C28.1772 0.0219721 27.6782 -0.102997 27.2539 0.0901788L11.3672 7.34664C11.201 7.41943 10.3583 7.82729 10.0813 8.66042C9.51644 10.356 1.05469 40.5331 1.05469 42.8842V45.1995C1.05469 45.9425 1.3884 46.6296 1.9693 47.0851C2.25998 47.3126 2.6944 47.4847 3.50143 47.7932C4.16061 48.0459 5.06286 48.3906 5.45242 48.6758C5.89096 48.9962 6.35696 49.3446 6.84951 49.7126C10.7025 52.5901 15.9791 56.5306 21.7817 57.8201C30.0421 59.6557 39.7389 57.4365 41.8171 56.9128C43.2051 57.6301 48.2972 59.9999 54.9636 59.9999C55.9474 59.9999 56.9659 59.9487 58.011 59.8319C58.5585 59.7715 58.9526 59.2781 58.8922 58.731C58.8308 58.1826 58.336 57.7853 57.7908 57.8498Z" fill="#F41E1E"/>
<path d="M52.9079 45.7658C52.853 45.2668 52.4305 44.8787 51.9164 44.8787C51.3657 44.8787 50.9189 45.3254 50.9189 45.8761C50.9189 46.5422 51.411 48.7976 57.7364 49.8513C57.7918 49.8605 57.8472 49.8651 57.9012 49.8651C58.38 49.8651 58.8025 49.5195 58.884 49.0319C58.9742 48.4886 58.6071 47.975 58.0642 47.8839C53.6408 47.1469 52.967 45.8986 52.9079 45.7658Z" fill="#F41E1E"/>
<path d="M33.7573 50.8845C20.695 53.6824 15.1052 44.745 14.8741 44.3637C14.5889 43.8926 13.9778 43.7411 13.5067 44.024C13.0343 44.3074 12.8814 44.9199 13.1648 45.3923C13.2307 45.5017 14.8178 48.1068 18.2112 50.326C20.5494 51.8545 24.1149 53.4118 28.9375 53.4118C30.5438 53.4118 32.2892 53.2392 34.1747 52.8355C34.7135 52.7201 35.0569 52.1896 34.9415 51.6513C34.8257 51.1129 34.296 50.7682 33.7573 50.8845Z" fill="#F41E1E"/>
</g>
<defs>
<clipPath id="clip0_266_805">
<rect width="60" height="60" fill="white"/>
</clipPath>
</defs>
</svg>
