<svg width="60" height="60" viewBox="0 0 60 60" fill="none" xmlns="http://www.w3.org/2000/svg">
<g clip-path="url(#clip0_266_799)">
<path d="M59.1586 31.7374H57.6954V24.9653C57.6954 24.5007 57.3186 24.1239 56.854 24.1239H49.0101C48.5456 24.1239 48.1688 24.5007 48.1688 24.9653V31.7384H45.0116V31.2757C45.0116 25.5672 40.6574 20.8565 35.0958 20.2906C37.3528 18.6895 38.8298 16.058 38.8298 13.0864C38.8298 8.21745 34.8687 4.25632 29.9999 4.25632C25.131 4.25632 21.1699 8.21745 21.1699 13.0864C21.1699 16.058 22.6471 18.6895 24.9039 20.2906C19.3423 20.8565 14.9883 25.5672 14.9883 31.2755V31.7383H11.8312V24.9652C11.8312 24.5006 11.4544 24.1238 10.9899 24.1238H3.14613C2.68142 24.1238 2.30477 24.5006 2.30477 24.9652V31.7373H0.841361C0.37679 31.7373 0 32.1141 0 32.5786C0 33.0432 0.37679 33.42 0.841361 33.42H2.30477V40.1921C2.30477 40.6567 2.68142 41.0335 3.14613 41.0335H10.9899C11.4544 41.0335 11.8312 40.6567 11.8312 40.1921V33.421H14.9978C15.1287 35.3982 16.7779 36.9669 18.7875 36.9669C19.5702 36.9669 20.2983 36.7288 20.9033 36.3216V51.8748C20.9033 54.0081 22.6388 55.7436 24.7719 55.7436C26.9051 55.7436 28.6406 54.0081 28.6406 51.8748V43.537C28.6406 42.7873 29.2505 42.1776 30 42.1776C30.7495 42.1776 31.3594 42.7874 31.3594 43.537V51.8748C31.3594 54.0081 33.0948 55.7436 35.2281 55.7436C37.3614 55.7436 39.0968 54.0081 39.0968 51.8748V36.3217C39.7019 36.7291 40.4299 36.967 41.2127 36.967C43.2224 36.967 44.8716 35.3983 45.0025 33.4211H48.1691V40.1923C48.1691 40.6568 48.5458 41.0336 49.0104 41.0336H56.8543C57.3189 41.0336 57.6957 40.6568 57.6957 40.1923V33.4201H59.1589C59.6235 33.4201 60.0003 33.0434 60.0003 32.5788C60.0003 32.1142 59.6232 31.7374 59.1586 31.7374ZM3.98749 25.8067H6.22663V39.3509H3.98749V25.8067ZM7.90922 39.3509V25.8067H10.1484V39.3509H7.90922ZM22.8528 13.0864C22.8528 9.14547 26.0591 5.93904 30 5.93904C33.9411 5.93904 37.1472 9.14533 37.1472 13.0864C37.1472 17.0275 33.9411 20.2336 30 20.2336C26.0589 20.2336 22.8528 17.0275 22.8528 13.0864ZM26.0303 21.9164H33.9698C38.6879 21.9164 42.5994 25.4262 43.2362 29.9715C42.6525 29.604 41.9626 29.3903 41.2233 29.3903C40.4353 29.3903 39.7029 29.6323 39.0961 30.0457V29.6283C39.0961 29.1637 38.7193 28.7869 38.2547 28.7869C37.7902 28.7869 37.4134 29.1637 37.4134 29.6283V31.7385H22.5865V29.6283C22.5865 29.1637 22.2097 28.7869 21.7451 28.7869C21.2806 28.7869 20.9038 29.1637 20.9038 29.6283V30.0457C20.297 29.6325 19.5646 29.3904 18.7767 29.3904C18.0374 29.3904 17.3475 29.604 16.7638 29.9717C17.4008 25.4262 21.3124 21.9164 26.0303 21.9164ZM18.7875 35.2843C17.6223 35.2843 16.6744 34.3378 16.6714 33.1733C16.6744 32.0148 17.6175 31.073 18.7768 31.073C19.9379 31.073 20.8824 32.0176 20.8824 33.1788C20.8824 33.2287 20.89 33.3936 20.8858 33.4279C20.7571 34.4724 19.8662 35.2843 18.7875 35.2843ZM35.2281 54.0608C34.0227 54.0608 33.0421 53.0802 33.0421 51.8748V43.537C33.0421 41.8596 31.6775 40.4949 30 40.4949C28.3226 40.4949 26.9579 41.8596 26.9579 43.537V51.8748C26.9579 53.0802 25.9773 54.0608 24.7719 54.0608C23.5665 54.0608 22.5861 53.0802 22.5861 51.8748V33.421H37.4141V51.8748C37.4141 53.0802 36.4333 54.0608 35.2281 54.0608ZM41.2125 35.2843C40.1608 35.2843 39.2878 34.5128 39.1254 33.5062C39.1157 33.4466 39.1177 33.2287 39.1177 33.1788C39.1177 32.0177 40.0623 31.073 41.2235 31.073C42.3826 31.073 43.3258 32.0148 43.3288 33.1733C43.3258 34.3378 42.3778 35.2843 41.2125 35.2843ZM49.8516 25.8067H52.0909V39.3509H49.8516V25.8067ZM56.0126 39.3509H53.7735V25.8067H56.0126V39.3509Z" fill="#F41E1E"/>
</g>
<defs>
<clipPath id="clip0_266_799">
<rect width="60" height="60" fill="white"/>
</clipPath>
</defs>
</svg>
