<svg width="60" height="48" viewBox="0 0 60 48" fill="none" xmlns="http://www.w3.org/2000/svg">
<path d="M56.4847 33.1492H55.1488C54.6321 31.1804 52.7916 29.7201 50.6066 29.7201H48.2246C45.6401 29.7201 43.5374 31.7629 43.5374 34.2738V35.4354H35.7796C38.6061 28.8429 37.2413 21.0316 31.7542 15.7029L35.0188 6.71858C36.2097 3.43568 33.7099 0 30.1259 0H7.08914C3.50657 0 1.00476 3.4342 2.19649 6.71915L5.46091 15.7032C-1.17327 22.1462 -1.84906 32.3589 3.90674 39.5584C4.1288 39.8359 4.47038 39.9984 4.83224 39.9984H9.41623V41.1555C9.41623 43.0387 10.9933 44.5708 12.9317 44.5708H14.2676C14.7843 46.5396 16.6248 48 18.8099 48H21.1917C23.7763 48 25.879 45.9572 25.879 43.4463V42.2846H43.5373V43.4463C43.5373 45.9572 45.64 48 48.2245 48H50.6064C52.7915 48 54.6321 46.5396 55.1487 44.5708H56.4846C58.423 44.5708 60 43.0387 60 41.1555V36.5645C60.0001 34.6814 58.4231 33.1492 56.4847 33.1492ZM4.40675 5.96163C3.75394 4.16211 5.12355 2.27675 7.08926 2.27675H30.1261C32.0904 2.27675 33.4617 4.16097 32.8088 5.96107L29.8542 14.0919C29.0765 13.5167 28.2512 12.9994 27.3846 12.547L29.7389 6.75979C30.0423 6.01378 29.4762 5.20287 28.6491 5.20287H8.56597C7.74043 5.20287 7.17234 6.01252 7.47619 6.75979L9.83058 12.5472C8.96403 12.9997 8.13873 13.517 7.361 14.0921L4.40675 5.96163ZM11.9642 11.5977L10.2891 7.47985H26.9258L25.2507 11.5976C20.9882 10.009 16.2362 10.0056 11.9642 11.5977ZM5.41791 37.7215C3.40685 35.022 2.34719 31.8387 2.34719 28.4796C2.34719 19.7689 9.64169 12.6821 18.6078 12.6821C27.5739 12.6821 34.8684 19.7688 34.8684 28.4796C34.8684 30.8948 34.2949 33.2851 33.208 35.4354H25.8792V34.2738C25.8792 31.7629 23.7765 29.7201 21.192 29.7201H18.8099C16.6247 29.7201 14.7843 31.1804 14.2676 33.1492H12.9317C10.9933 33.1492 9.41623 34.6814 9.41623 36.5645V37.7215H5.41791ZM11.7598 41.1555V36.5645C11.7598 35.9368 12.2855 35.4261 12.9317 35.4261H14.1227V42.2939H12.9317C12.2855 42.2939 11.7598 41.7832 11.7598 41.1555ZM23.5353 43.4463C23.5353 44.7017 22.484 45.7231 21.1917 45.7231H18.8099C17.5176 45.7231 16.4663 44.7017 16.4663 43.4463C16.4663 40.524 16.4663 37.1364 16.4663 34.2738C16.4663 33.0183 17.5176 31.9969 18.8099 31.9969H21.1917C22.484 31.9969 23.5353 33.0183 23.5353 34.2738V43.4463ZM25.879 40.0077V37.7123H43.5373V40.0077H25.879ZM52.9502 43.4463C52.9502 44.7017 51.8988 45.7231 50.6066 45.7231H48.2246C46.9324 45.7231 45.881 44.7017 45.881 43.4463C45.881 41.6906 45.881 36.5484 45.881 34.2738C45.881 33.0183 46.9324 31.9969 48.2246 31.9969H50.6066C51.8988 31.9969 52.9502 33.0183 52.9502 34.2738V43.4463ZM57.6565 41.1555C57.6565 41.7832 57.1308 42.2939 56.4847 42.2939H55.2938V35.4261H56.4847C57.1308 35.4261 57.6565 35.9368 57.6565 36.5645V41.1555Z" fill="#F41E1E"/>
</svg>
