<svg width="60" height="60" viewBox="0 0 60 60" fill="none" xmlns="http://www.w3.org/2000/svg">
<g clip-path="url(#clip0_274_163)">
<path d="M59.1211 54.5155H55.735C56.5182 53.4457 56.841 52.0889 56.5915 50.7422C56.4565 50.0157 56.163 49.3478 55.7487 48.7729C56.4912 48.6017 57.2026 48.2652 57.8261 47.7663C58.179 47.4838 58.3855 47.0622 58.3928 46.6104C58.4001 46.1581 58.2074 45.7301 57.8636 45.4362L49.7287 38.4814C49.1299 37.9692 48.6809 37.3041 48.4305 36.557L46.5298 30.8817C46.5294 30.8798 46.5285 30.878 46.528 30.8762L44.8164 25.7671C44.0405 23.4503 42.1857 21.6302 39.8547 20.8983L33.9606 19.0471C35.5609 17.9187 36.6092 16.057 36.6092 13.954V9.86298C36.6092 6.42746 33.8141 3.63281 30.379 3.63281C26.944 3.63281 24.1489 6.42746 24.1489 9.86298V13.9545C24.1489 15.9604 25.1028 17.747 26.58 18.8869C26.4272 18.929 26.2747 18.9734 26.1227 19.021L20.1453 20.8983C17.8143 21.6302 15.9595 23.4503 15.1836 25.7671L11.5691 36.557C11.3187 37.3041 10.8701 37.9697 10.2713 38.4814L2.13638 45.4367C1.7926 45.7306 1.59988 46.1581 1.60721 46.6104C1.61453 47.0627 1.82098 47.4838 2.17392 47.7663C2.82578 48.2881 3.5733 48.6324 4.35242 48.7953C3.61679 50.1489 3.47717 51.7996 4.04434 53.2961C4.21646 53.7488 4.44305 54.1566 4.71588 54.516H0.878906C0.393219 54.516 0 54.9092 0 55.3949C0 55.8801 0.393219 56.2738 0.878906 56.2738H53.4833H53.4842H53.4851H59.1211C59.6068 56.2738 60 55.8801 60 55.3949C60 54.9092 59.6063 54.5155 59.1211 54.5155ZM39.1191 34.0123L42.2232 41.7361C42.2406 41.7792 42.2612 41.8208 42.285 41.8607C42.8343 42.7753 43.6166 43.5329 44.5482 44.0524L45.5772 44.626L39.1191 42.654V34.0123ZM48.5861 39.8177L56.4857 46.571C55.4265 47.2787 54.0628 47.3415 52.9344 46.7143L45.4042 42.5171C44.7601 42.1582 44.2159 41.6386 43.8268 41.0129L41.06 34.1281L45.1634 32.3369L46.7638 37.115C47.1153 38.1642 47.7457 39.0985 48.5861 39.8177ZM25.9067 13.9545V9.86298C25.9067 7.397 27.9131 5.39062 30.379 5.39062C32.845 5.39062 34.8514 7.397 34.8514 9.86298V13.9545C34.8514 16.4204 32.845 18.4268 30.379 18.4268C27.9131 18.4268 25.9067 16.4204 25.9067 13.9545ZM20.6717 22.5751L26.6496 20.6982C28.8414 20.0098 31.1586 20.0098 33.3504 20.6982L39.3283 22.5751C41.1237 23.139 42.5523 24.5407 43.1497 26.3255L44.6031 30.6638L40.4041 32.4962L39.0555 29.1408C38.8985 28.7503 38.4869 28.5255 38.0731 28.6057C37.6598 28.6858 37.3613 29.0479 37.3613 29.4685V42.4255H22.6387V29.4685C22.6387 29.0479 22.3402 28.6858 21.9269 28.6057C21.5144 28.5255 21.1015 28.7503 20.9445 29.1408L19.7772 32.0448L15.6294 29.9707L16.8503 26.3255C17.4477 24.5407 18.8763 23.139 20.6717 22.5751ZM11.4134 39.8177C12.2543 39.0985 12.8847 38.1642 13.2358 37.115L15.065 31.6539L19.1194 33.6813L18.4804 35.2711C18.2996 35.7216 18.5179 36.2334 18.9684 36.4146C19.4183 36.5955 19.9306 36.3771 20.1114 35.9267L20.8809 34.0128V42.6512L14.5496 44.5555L15.4514 44.0524C16.3829 43.5333 17.1657 42.7757 17.715 41.8611C17.7388 41.8213 17.7594 41.7796 17.7768 41.7361L18.4337 40.101C18.615 39.6506 18.3966 39.1388 17.9462 38.958C17.4957 38.7767 16.9839 38.9951 16.8027 39.4455L16.1728 41.0129C15.7837 41.6391 15.2399 42.1582 14.5958 42.5171L7.0665 46.7139C5.93719 47.3415 4.57397 47.2787 3.51425 46.571L11.4134 39.8177ZM8.39996 54.5155H8.39676C7.1196 54.5155 6.13266 53.844 5.68817 52.6726C5.18555 51.3469 5.52979 49.7841 6.52176 48.8049L21.8889 44.1833H38.1093L52.6982 48.6383C53.8367 48.9857 54.646 49.8921 54.863 51.0626C55.08 52.2331 54.6497 53.3693 53.7112 54.1017L53.1816 54.516H34.6211C34.5076 53.8998 34.2339 53.0804 33.5861 52.3512L35.3371 52.2546C35.8218 52.2281 36.1931 51.8134 36.1661 51.3286C36.1395 50.8443 35.7248 50.4735 35.2405 50.4996L30.477 50.7628C30.2756 50.7266 30.0655 50.6964 29.8448 50.674L16.2891 49.2581C15.8029 49.2073 15.374 49.5584 15.3236 50.0409C15.2733 50.5238 15.6239 50.956 16.1064 51.0063L29.6631 52.4222C29.8682 52.4432 30.0609 52.4721 30.2412 52.5069C30.2449 52.5078 30.249 52.5082 30.2527 52.5092C32.0073 52.8534 32.6244 53.8083 32.8372 54.5155H8.39996Z" fill="#F41E1E"/>
<path d="M39.8452 52.0043C39.8612 52.0043 39.8777 52.0043 39.8942 52.0034L45.8218 51.6761C46.3061 51.649 46.6773 51.2348 46.6508 50.75C46.6242 50.2652 46.209 49.8935 45.7247 49.921L39.7976 50.2483C39.3128 50.2748 38.9416 50.6896 38.9681 51.1739C38.9942 51.6422 39.3815 52.0043 39.8452 52.0043Z" fill="#F41E1E"/>
</g>
<defs>
<clipPath id="clip0_274_163">
<rect width="60" height="60" fill="white"/>
</clipPath>
</defs>
</svg>
