<svg width="60" height="60" viewBox="0 0 60 60" fill="none" xmlns="http://www.w3.org/2000/svg">
<g clip-path="url(#clip0_256_7)">
<path d="M58.8 52.8001H57.0791L54.9722 49.2881C56.6485 47.7067 57.5988 45.5048 57.6 43.2004C57.5643 40.1296 55.9735 37.2862 53.3749 35.6479L51.6564 15.0219C53.2126 13.9332 54.3482 12.3431 54.8726 10.5173C55.6893 7.6147 54.93 4.26676 52.6174 0.566109C52.2664 0.00304167 51.5252 -0.169218 50.9616 0.182333C50.3985 0.533297 50.2262 1.27507 50.5778 1.83814C52.506 4.92416 53.1757 7.61353 52.567 9.83122C52.1557 11.3054 51.1836 12.5604 49.8589 13.328L47.6675 14.4231L47.2849 13.2747L49.8003 11.8433C50.1723 11.6288 50.4008 11.2316 50.4002 10.8015V6.00167C50.4008 5.57278 50.1723 5.17611 49.8008 4.96108C49.43 4.74605 48.9718 4.74605 48.6003 4.96049L40.2006 9.76033C39.8285 9.97477 39.5994 10.372 39.6006 10.8015V15.6013C39.5994 16.0308 39.8279 16.4275 40.1994 16.6425C40.5709 16.8575 41.0285 16.8575 41.4005 16.6431L45.1698 14.4893L45.509 15.5082C44.8592 15.6617 44.4004 16.2418 44.4004 16.9097L45.8066 32.3785C37.1403 29.3558 28.2344 27.0678 19.1843 25.5385L16.1739 18.0013H21.6012C23.5892 18.0013 25.2011 16.39 25.2011 14.4014V14.1207C25.2011 12.305 23.8488 10.774 22.0477 10.5484L7.64818 8.74845C6.62341 8.62072 5.59336 8.93887 4.81878 9.62205C4.04478 10.3052 3.60183 11.2884 3.60183 12.3208V14.4014C3.60183 16.39 5.21369 18.0013 7.20171 18.0013H8.78896L11.8849 25.7424C7.45951 27.0338 4.03072 30.5452 2.84483 34.9999C1.65893 39.4552 2.88877 44.2058 6.08671 47.5268L2.92275 52.8001H1.20191C0.53924 52.8001 0.00195312 53.3374 0.00195312 54V58.7999C0.00195312 59.4631 0.53924 59.9998 1.20191 59.9998H10.8016C11.4643 59.9998 12.0015 59.4631 12.0015 58.7999V54C12.0015 53.3374 11.4643 52.8001 10.8016 52.8001H10.5209L11.6125 50.9814C12.9027 51.3915 14.248 51.6001 15.6014 51.6001H48.7608L49.4809 52.8001H49.2003C48.5376 52.8001 48.0003 53.3374 48.0003 54V58.7999C48.0003 59.4631 48.5376 59.9998 49.2003 59.9998H58.8C59.4626 59.9998 59.9999 59.4631 59.9999 58.7999V54C59.9999 53.3374 59.4626 52.8001 58.8 52.8001ZM42.0005 13.5342V11.4941L48.0003 8.06586V10.106L42.0005 13.5342ZM57.6 57.5999H50.4002V55.2H57.6V57.5999ZM9.60163 57.5999H2.40187V55.2H9.60163V57.5999ZM5.7211 52.8001L7.88079 49.2002H8.04133C8.47256 49.5072 8.92196 49.7879 9.3866 50.0404L7.72259 52.8001H5.7211ZM4.80179 38.4006C4.80882 32.4394 9.63971 27.6086 15.6014 27.6009C15.9325 27.6009 16.2875 27.6238 16.7662 27.666C25.7659 28.5062 44.8909 33.9874 51.0635 37.0746C53.4798 38.1826 55.0753 40.5456 55.2001 43.2004C55.196 46.5126 52.5119 49.1967 49.2003 49.2002H15.6014C9.63971 49.1932 4.80882 44.3623 4.80179 38.4006ZM6.00175 14.4014V12.3208C6.00175 11.6581 6.53904 11.1208 7.20171 11.1208C7.25268 11.1208 7.30424 11.1238 7.35522 11.1296L21.7547 12.9296C22.3553 13.0046 22.8065 13.5155 22.8059 14.1207V14.4014C22.8059 15.0646 22.2686 15.6013 21.6059 15.6013H7.20171C6.53904 15.6013 6.00175 15.0646 6.00175 14.4014ZM13.5888 18.0013L16.4856 25.2444C16.1844 25.225 15.8797 25.201 15.6014 25.201C15.1561 25.201 14.7155 25.225 14.2814 25.2684L11.374 18.0013H13.5888ZM16.8735 26.2129L16.8963 26.2703L16.8781 26.4707L16.8735 26.2129ZM49.3515 16.2675L50.8561 34.3308C50.1026 33.998 49.246 33.6488 48.3038 33.2879L46.8636 17.5085L49.3515 16.2675ZM53.0076 50.6791L54.2808 52.8001H52.2793L51.3817 51.3031C51.9441 51.1525 52.489 50.9433 53.0076 50.6791Z" fill="#F41E1E"/>
<path d="M15.6015 46.8002C18.599 46.7973 21.3669 45.1965 22.8657 42.6003L25.4888 43.6491C25.074 44.1384 25.1209 44.8684 25.5955 45.3002C26.0707 45.7321 26.8019 45.7098 27.2495 45.2498L30.8494 41.65C31.3041 41.1795 31.2976 40.4313 30.8347 39.9684C30.3719 39.5055 29.6231 39.4985 29.1526 39.9537L27.3116 41.7929L23.761 40.3709C24.6006 36.8911 23.1428 33.2614 20.1294 31.3296C17.1155 29.3973 13.2086 29.5877 10.3974 31.803C7.58554 34.0184 6.48636 37.7724 7.65995 41.1543C8.83354 44.5362 12.0215 46.8031 15.6015 46.8002ZM15.6015 32.4007C17.3844 32.3813 19.0824 33.1647 20.2244 34.534C21.3669 35.9039 21.8327 37.7144 21.4929 39.4651L16.0479 37.2861C15.4321 37.0394 14.7331 37.3388 14.4865 37.9546C14.2398 38.5698 14.5392 39.2688 15.155 39.5155L20.6064 41.6957C19.0309 44.0938 15.9776 45.0401 13.3217 43.9544C10.6663 42.8687 9.15053 40.0545 9.70598 37.2392C10.2614 34.4244 12.7322 32.3966 15.6015 32.4007Z" fill="#F41E1E"/>
</g>
<defs>
<clipPath id="clip0_256_7">
<rect width="60" height="60" fill="white"/>
</clipPath>
</defs>
</svg>
