<svg width="60" height="60" viewBox="0 0 60 60" fill="none" xmlns="http://www.w3.org/2000/svg">
<g clip-path="url(#clip0_267_810)">
<path d="M30.2339 60.0372C28.8451 60.0422 27.5122 59.4894 26.5349 58.5031L1.5285 33.4967C-0.509501 31.4587 -0.509501 28.1543 1.5285 26.1158C3.56651 24.0778 6.87096 24.0778 8.90947 26.1158L33.9153 51.1221C35.414 52.6123 35.8655 54.8591 35.0589 56.8122C34.2524 58.7653 32.3468 60.0387 30.2339 60.0372ZM5.2105 27.3093C4.19873 27.3053 3.28585 27.9146 2.90032 28.8499C2.5148 29.7853 2.73403 30.8604 3.45465 31.5706L28.461 56.577C29.4353 57.5513 31.0149 57.5513 31.9892 56.577C32.9635 55.6027 32.9635 54.0226 31.9892 53.0483L6.98332 28.0424C6.5129 27.5725 5.87518 27.3088 5.2105 27.3093Z" fill="#F41E1E"/>
<path d="M19.3242 60.0372C17.9354 60.0422 16.603 59.4894 15.6252 58.5031L1.5285 44.4064C-0.509501 42.3679 -0.509501 39.0634 1.5285 37.0254C3.56651 34.9869 6.87096 34.9869 8.90947 37.0254L6.98332 38.9515C6.00902 37.9772 4.42895 37.9772 3.45465 38.9515C2.48034 39.9258 2.48034 41.5054 3.45465 42.4797L17.5514 56.577C18.5257 57.5513 20.1058 57.5513 21.0801 56.577C22.0544 55.6027 22.0544 54.0226 21.0801 53.0483L23.0062 51.1221C24.5049 52.6123 24.9563 54.8591 24.1498 56.8122C23.3428 58.7653 21.4376 60.0387 19.3242 60.0372Z" fill="#F41E1E"/>
<path d="M8.17637 59.2362L0.79541 51.8552L5.84123 46.7924L7.78435 48.7356L4.64769 51.8552L8.17637 55.3834L11.2956 52.2473L13.2392 54.1904L8.17637 59.2362Z" fill="#F41E1E"/>
<path d="M54.7798 35.4913C53.391 35.4963 52.0581 34.9434 51.0808 33.9572L26.0744 8.95078C24.0364 6.91277 24.0364 3.60832 26.0744 1.56981C28.1124 -0.468193 31.4169 -0.468193 33.4554 1.56981L58.4612 26.5762C59.9599 28.0664 60.4114 30.3131 59.6048 32.2662C58.7983 34.2193 56.8927 35.4928 54.7798 35.4913ZM29.7564 2.76335C28.7446 2.75936 27.8318 3.36861 27.4462 4.30396C27.0607 5.23932 27.2799 6.3145 28.0005 7.02463L53.0069 32.031C53.9812 33.0053 55.5608 33.0053 56.5351 32.031C57.5094 31.0567 57.5094 29.4766 56.5351 28.5023L31.5292 3.49645C31.0588 3.02653 30.4211 2.76285 29.7564 2.76335Z" fill="#F41E1E"/>
<path d="M54.7798 24.5816C53.391 24.5866 52.0581 24.0343 51.0808 23.0475L53.007 21.1214C53.9813 22.0957 55.5608 22.0957 56.5351 21.1214C57.5095 20.1471 57.5095 18.5675 56.5351 17.5932L42.4384 3.49645C41.4641 2.52165 39.884 2.52165 38.9097 3.49645C37.9354 4.47076 37.9354 6.05033 38.9097 7.02463L36.9836 8.95077C34.9456 6.91277 34.9456 3.60832 36.9836 1.56981C39.0221 -0.468193 42.3265 -0.468193 44.3645 1.56981L58.4613 15.667C59.9599 17.1567 60.4114 19.404 59.6049 21.3571C58.7984 23.3102 56.8927 24.5836 54.7798 24.5816Z" fill="#F41E1E"/>
<path d="M54.1494 13.2805L52.2058 11.3374L55.3424 8.21767L51.8138 4.68949L48.6946 7.82565L46.7515 5.88253L51.8138 0.837209L59.1947 8.21767L54.1494 13.2805Z" fill="#F41E1E"/>
<path d="M16.7573 35.8913L35.8499 16.7987L37.7781 18.7273L18.686 37.8194L16.7573 35.8913Z" fill="#F41E1E"/>
<path d="M22.2046 41.3456L41.2967 22.2535L43.2254 24.1821L24.1327 43.2742L22.2046 41.3456Z" fill="#F41E1E"/>
</g>
<defs>
<clipPath id="clip0_267_810">
<rect width="60" height="60" fill="white"/>
</clipPath>
</defs>
</svg>
