<svg width="60" height="60" viewBox="0 0 60 60" fill="none" xmlns="http://www.w3.org/2000/svg">
<path fill-rule="evenodd" clip-rule="evenodd" d="M41.2873 48.625C42.3998 49.7125 43.3998 51.05 43.7623 53.9C43.8498 54.5875 44.4748 55.075 45.1498 54.9875C45.8373 54.9 46.3248 54.275 46.2373 53.6C45.7373 49.5375 44.2123 47.925 42.6123 46.4375C43.2873 45.125 43.7373 43.75 43.7373 42.5C43.7373 39.425 42.5873 36.4875 42.4873 31.8125C45.8373 28.8375 48.0623 25.2625 48.6123 20.7875C50.7998 21.6625 52.7998 21.2375 54.5623 19.6875C55.0748 19.225 55.1248 18.4375 54.6748 17.925C54.2123 17.4125 53.4248 17.3625 52.9123 17.8125C51.5498 19.0125 49.9623 18.95 48.1998 17.725C47.8248 17.4625 47.3248 17.425 46.9123 17.6375C46.4998 17.85 46.2373 18.275 46.2373 18.7375C46.2123 23.6 43.9623 27.2875 40.4248 30.2875C40.1498 30.525 39.9873 30.875 39.9873 31.2375C39.9873 36.2375 41.2373 39.2875 41.2373 42.4875C41.2373 43.775 40.4998 45.225 39.6748 46.5125C38.3123 48.65 36.5998 50.35 36.5998 50.35C36.1123 50.8375 36.1123 51.625 36.5998 52.125C37.0873 52.6125 37.8748 52.6125 38.3748 52.125C38.3748 52.125 39.8748 50.6125 41.2748 48.6125L41.2873 48.625ZM17.3748 46.4375C15.7873 47.925 14.2498 49.5375 13.7498 53.6C13.6623 54.2875 14.1498 54.9125 14.8373 54.9875C15.5248 55.075 16.1498 54.5875 16.2248 53.9C16.5748 51.05 17.5873 49.7125 18.6998 48.625C20.0998 50.625 21.5998 52.1375 21.5998 52.1375C22.0873 52.625 22.8748 52.625 23.3748 52.1375C23.8623 51.65 23.8623 50.8625 23.3748 50.3625C23.3748 50.3625 21.6623 48.6625 20.2998 46.525C19.4748 45.2375 18.7373 43.7875 18.7373 42.5C18.7373 39.3 19.9873 36.25 19.9873 31.25C19.9873 30.8875 19.8248 30.5375 19.5498 30.3C16.0123 27.3 13.7748 23.6125 13.7373 18.75C13.7373 18.2875 13.4748 17.8625 13.0623 17.65C12.6498 17.4375 12.1498 17.475 11.7748 17.7375C10.0123 18.9625 8.42482 19.025 7.06232 17.825C6.54982 17.375 5.74982 17.4125 5.29982 17.9375C4.84982 18.45 4.88732 19.25 5.41232 19.7C7.17482 21.2625 9.17482 21.675 11.3623 20.8C11.8998 25.275 14.1373 28.85 17.4873 31.825C17.3998 36.5 16.2373 39.4375 16.2373 42.5125C16.2373 43.7625 16.6998 45.1375 17.3623 46.45L17.3748 46.4375ZM28.7498 34.3C27.8998 34.7625 27.0748 35 26.2373 35C25.1998 35 24.1998 34.65 23.1998 33.9625C22.6248 33.575 21.8498 33.725 21.4623 34.2875C21.0748 34.8625 21.2248 35.6375 21.7873 36.025C23.2498 37.025 24.7373 37.5 26.2498 37.4875C27.0748 37.4875 27.8998 37.3375 28.7373 37.025V39.2875C27.8873 39.75 27.0623 39.9875 26.2248 39.9875C25.1873 39.9875 24.1873 39.6375 23.1873 38.95C22.6123 38.5625 21.8373 38.7125 21.4498 39.275C21.0623 39.85 21.2123 40.625 21.7748 41.0125C23.2373 42.0125 24.7248 42.4875 26.2373 42.475C27.0623 42.475 27.8873 42.325 28.7248 42.0125V44.275C27.8748 44.7375 27.0498 44.975 26.2123 44.975C25.1748 44.975 24.1748 44.625 23.1748 43.9375C22.5998 43.55 21.8248 43.7 21.4373 44.2625C21.0498 44.8375 21.1998 45.6125 21.7623 46C23.2248 47 24.7123 47.475 26.2248 47.4625C27.4498 47.4625 28.6998 47.125 29.9623 46.425C31.1998 47.125 32.4623 47.4625 33.7248 47.4625C35.1748 47.4625 36.6498 46.9875 38.1498 46.0125C38.7248 45.6375 38.8873 44.8625 38.5123 44.2875C38.1373 43.7125 37.3623 43.55 36.7873 43.925C35.7373 44.6125 34.7248 44.9625 33.7123 44.975C32.8623 44.975 32.0373 44.7375 31.2248 44.275V42.025C32.0498 42.325 32.8873 42.475 33.7373 42.475C35.1873 42.475 36.6623 42 38.1623 41.025C38.7373 40.65 38.8998 39.875 38.5248 39.3C38.1498 38.725 37.3748 38.5625 36.7998 38.9375C35.7498 39.625 34.7373 39.975 33.7248 39.9875C32.8748 39.9875 32.0498 39.75 31.2373 39.2875V37.0375C32.0623 37.3375 32.8998 37.4875 33.7498 37.4875C35.1998 37.4875 36.6748 37.0125 38.1748 36.0375C38.7498 35.6625 38.9123 34.8875 38.5373 34.3125C38.1623 33.7375 37.3873 33.575 36.8123 33.95C35.7623 34.6375 34.7498 34.9875 33.7373 35C32.8873 35 32.0623 34.7625 31.2498 34.3V33.75C31.2498 33.0625 30.6873 32.5 29.9998 32.5C29.3123 32.5 28.7498 33.0625 28.7498 33.75V34.3ZM28.7498 20V25C28.7498 25.625 28.3123 26.1875 27.6623 26.6375C26.3123 27.575 24.0998 28 21.4748 27.525C20.7998 27.4 20.1498 27.85 20.0248 28.5375C19.8998 29.2125 20.3498 29.8625 21.0373 29.9875C24.4498 30.6 27.3248 29.9125 29.0873 28.7C29.4373 28.4625 29.7373 28.2 30.0123 27.925C30.2748 28.2 30.5873 28.4625 30.9373 28.7C32.6998 29.9125 35.5748 30.6 38.9873 29.9875C39.6623 29.8625 40.1123 29.2125 39.9998 28.5375C39.8748 27.8625 39.2248 27.4125 38.5498 27.525C35.9373 28 33.7123 27.575 32.3623 26.6375C31.7123 26.1875 31.2748 25.6375 31.2748 25V20C31.2748 19.3125 30.7123 18.75 30.0248 18.75C29.3373 18.75 28.7748 19.3125 28.7748 20H28.7498ZM36.2498 23.75C36.9373 23.75 37.4998 24.3125 37.4998 25C37.4998 25.6875 36.9373 26.25 36.2498 26.25C35.5623 26.25 34.9998 25.6875 34.9998 25C34.9998 24.3125 35.5623 23.75 36.2498 23.75ZM23.7498 23.75C24.4373 23.75 24.9998 24.3125 24.9998 25C24.9998 25.6875 24.4373 26.25 23.7498 26.25C23.0623 26.25 22.4998 25.6875 22.4998 25C22.4998 24.3125 23.0623 23.75 23.7498 23.75ZM23.3373 8.2C21.7123 7.0625 19.7623 6.25 17.4998 6.25C15.8373 6.25 14.5873 7.1 13.7748 7.925C12.9998 7.05 11.8248 6.05 10.2998 5.6625C6.86232 4.8 5.12482 8.1875 5.12482 8.1875C4.81232 8.8 5.06232 9.5625 5.68732 9.8625C6.29982 10.175 7.06232 9.925 7.36232 9.3C7.36232 9.3 8.12482 7.6875 9.68732 8.075C11.5998 8.55 12.6373 10.575 12.6373 10.575C12.8623 10.9875 13.2873 11.25 13.7623 11.2375C14.2373 11.2375 14.6623 10.9625 14.8623 10.55C14.8623 10.55 15.7248 8.7375 17.4998 8.7375C19.7123 8.7375 21.5373 9.8125 22.9373 11.0625C25.1623 13.05 26.3748 15.5375 26.3748 15.5375C26.6748 16.1625 27.4248 16.4125 28.0498 16.1125C28.6748 15.8125 28.9248 15.0625 28.6248 14.4375C28.6248 14.4375 27.4998 12.1 25.3748 9.925C26.6873 9.0625 27.2373 7.8375 27.4748 6.4375C27.5873 5.7625 27.1373 5.1125 26.4623 4.9875C25.7873 4.875 25.1373 5.325 25.0123 6C24.8498 6.9125 24.4623 7.725 23.3248 8.1625L23.3373 8.2ZM34.6248 9.95C32.5123 12.1125 31.3748 14.4625 31.3748 14.4625C31.0748 15.0875 31.3373 15.8375 31.9498 16.1375C32.5748 16.4375 33.3248 16.175 33.6248 15.5625C33.6248 15.5625 34.8248 13.075 37.0623 11.0875C38.4623 9.8375 40.2873 8.7625 42.4998 8.7625C44.2748 8.7625 45.1373 10.575 45.1373 10.575C45.3498 10.9875 45.7748 11.2625 46.2373 11.2625C46.6998 11.2625 47.1373 11.0125 47.3623 10.6C47.3623 10.6 48.3873 8.5875 50.3123 8.1C51.8748 7.7125 52.6373 9.325 52.6373 9.325C52.9498 9.9375 53.6998 10.1875 54.3123 9.8875C54.9248 9.575 55.1748 8.825 54.8748 8.2125C54.8748 8.2125 53.1373 4.825 49.6998 5.6875C48.1748 6.075 46.9998 7.075 46.2248 7.95C45.4123 7.125 44.1748 6.275 42.4998 6.275C40.2498 6.275 38.2873 7.0875 36.6623 8.225C35.5248 7.7875 35.1373 6.975 34.9748 6.0625C34.8498 5.3875 34.2123 4.925 33.5248 5.05C32.8498 5.175 32.3873 5.8125 32.5123 6.5C32.7498 7.8875 33.3123 9.125 34.6123 9.9875L34.6248 9.95Z" fill="#F41E1E"/>
</svg>
