<svg width="196" height="60" viewBox="0 0 196 60" fill="none" xmlns="http://www.w3.org/2000/svg">
<path d="M181.862 33.9359V60H172.88V33.9359H158.766V26.6864H196V33.9359H181.862Z" fill="#1D2229"/>
<path d="M143.804 60V26.6864H152.786V60H143.804Z" fill="#1D2229"/>
<path d="M106.643 39.3911L125.042 26.6864H137.074L114.68 42.6643L138.575 60H125.478L106.643 46.1557V60H97.6127V26.6864H106.643V39.3911Z" fill="#1D2229"/>
<path d="M39.4615 60V26.6864H48.4432V60H39.4615Z" fill="#1D2229"/>
<path d="M8.98172 33.7904V39.5851H30.6008V46.6891H8.98172V60H0V26.6864H31.7871V33.7904H8.98172Z" fill="#1D2229"/>
<path d="M69.8486 30.3933C62.0799 25.2726 53.5127 21.1907 46.801 14.6128L46.285 14.5964C45.7979 16.7023 45.559 19.0238 46.4934 21.0468C47.2787 22.8924 48.7908 24.3064 50.4066 25.4359C54.7508 28.4094 59.3337 31.0155 63.6724 33.9898C64.6513 34.6347 65.3008 35.7431 65.3921 36.9141C65.6325 41.991 65.4686 47.0805 65.5482 52.1614C65.5435 53.2042 65.9619 54.2173 66.7262 54.9286C68.52 56.7077 70.463 58.325 72.3474 60.0001C72.395 51.6221 72.2443 43.2394 72.4527 34.8606C72.6424 32.9619 71.4059 31.3149 69.8486 30.3933Z" fill="#1D2229"/>
<path d="M79.4011 23.526C79.4019 23.4822 79.4042 23.4392 79.4042 23.3947C79.4042 23.2383 79.3964 23.0836 79.3847 22.9304C79.3433 21.8767 78.9772 20.8988 78.3933 20.0686C77.3504 18.5155 75.5971 17.4821 73.5995 17.4305C73.559 17.4289 73.5176 17.4282 73.477 17.4274C73.4653 17.4274 73.4536 17.4266 73.4419 17.4266C73.4387 17.4266 73.4364 17.4266 73.4333 17.4266C73.0641 17.4235 72.6933 17.4579 72.3264 17.5329C69.9174 17.9902 68.0221 19.8982 67.581 22.316C67.5756 22.3433 67.5717 22.3715 67.5662 22.3988C67.5607 22.4317 67.5537 22.4645 67.549 22.4973C67.46 23.0367 67.4452 23.5885 67.517 24.1365C67.7941 27.099 70.5965 29.5559 73.5754 29.3776C76.697 29.4535 79.4721 26.6371 79.4011 23.526Z" fill="#F41E1E"/>
<path d="M100.549 14.5932C93.2702 19.9977 85.6225 24.8863 77.8929 29.617C76.7938 30.308 75.6002 30.8966 74.6947 31.8479C73.8524 32.7586 73.7822 34.0781 73.7908 35.2537C73.8009 35.5109 73.8103 35.768 73.8189 36.0252C74.0671 43.491 73.7236 50.967 73.9805 58.4304C73.9984 58.9502 74.0187 59.47 74.0421 59.9891C75.3223 58.8588 76.4854 57.5541 77.8359 56.5075C78.7414 55.7625 79.7734 55.0215 80.1871 53.8756C80.6087 52.8289 80.5002 51.683 80.5204 50.5863C80.4783 46.2996 80.5727 42.0136 80.4314 37.7308C80.419 36.0674 81.4182 34.5322 82.8272 33.7005C86.8426 31.2922 90.8659 28.883 94.705 26.1972C97.3193 24.4548 99.9765 22.3482 101.104 19.3059C101.726 17.7934 101.595 16.1448 101.268 14.5823L100.549 14.5932Z" fill="#1D2229"/>
<path d="M104.933 0C104.05 0 103.335 0.716804 103.336 1.59932L103.339 11.0818L44.0572 11.0951L44.0548 1.6126C44.0548 0.729304 43.339 0.0132927 42.4577 0.0140744C41.5756 0.0140744 40.8605 0.730868 40.8613 1.61338L40.8637 11.0959L40.8645 14.2937L40.8668 23.7762C40.8668 24.6595 41.5826 25.3756 42.4639 25.3748C43.346 25.3748 44.0611 24.658 44.0603 23.7755L44.0579 14.293L103.339 14.2797L103.342 23.7622C103.342 24.6455 104.057 25.3615 104.939 25.3607C105.821 25.3607 106.536 24.6439 106.535 23.7614L106.533 14.2789L106.532 11.081L106.53 1.59853C106.53 0.715239 105.814 0 104.933 0Z" fill="#F41E1E"/>
<path d="M109.471 2.14856C108.589 2.14856 107.874 2.86536 107.875 3.74788L107.876 11.08L107.877 14.2778L107.879 21.61C107.879 22.4933 108.594 23.2093 109.476 23.2085C110.358 23.2085 111.073 22.4917 111.072 21.6092L111.071 14.2771L111.07 11.0792L111.068 3.74709C111.068 2.8638 110.353 2.14856 109.471 2.14856Z" fill="#F41E1E"/>
<path d="M114.01 5.93066C113.127 5.93066 112.412 6.64747 112.413 7.52998L112.414 11.0796L112.415 14.2774L112.416 17.827C112.416 18.7103 113.131 19.4263 114.013 19.4255C114.896 19.4255 115.61 18.7087 115.609 17.8262L115.607 7.5292C115.607 6.64669 114.892 5.93066 114.01 5.93066Z" fill="#F41E1E"/>
<path d="M37.92 2.16455C37.0371 2.16455 36.3228 2.88134 36.3236 3.76386L36.3252 11.096L36.326 14.2938L36.3275 21.6259C36.3275 22.5092 37.0426 23.2252 37.9246 23.2245C38.8067 23.2245 39.5218 22.5077 39.521 21.6252L39.5195 14.293L39.5187 11.0952L39.5171 3.76307C39.5171 2.88056 38.8021 2.16455 37.92 2.16455Z" fill="#F41E1E"/>
<path d="M33.3823 5.94861C32.5002 5.94861 31.7852 6.6654 31.786 7.54792L31.7883 17.8449C31.7883 18.7282 32.5041 19.4442 33.3854 19.4435C34.2675 19.4435 34.9826 18.7267 34.9818 17.8442L34.981 14.2907L34.9802 11.0998L34.9794 7.54635C34.9794 6.66462 34.2644 5.94861 33.3823 5.94861Z" fill="#F41E1E"/>
</svg>
